<svg xmlns="http://www.w3.org/2000/svg" width="23.811" height="23.811" viewBox="0 0 23.811 23.811">
  <g id="icons8-google" transform="translate(-4 -4)">
    <path id="Path_4" data-name="Path 4" d="M27.58,13.574h-.959v-.049H15.906v4.762h6.728a7.149,7.149,0,1,1-1.989-7.715L24.012,7.2a11.893,11.893,0,1,0,3.8,8.7A11.987,11.987,0,0,0,27.58,13.574Z" fill="#ffc107"/>
    <path id="Path_5" data-name="Path 5" d="M6.306,10.364l3.912,2.869a7.129,7.129,0,0,1,11.36-2.661L24.945,7.2a11.882,11.882,0,0,0-18.639,3.16Z" transform="translate(-0.933)" fill="#ff3d00"/>
    <path id="Path_6" data-name="Path 6" d="M16.794,37.546a11.85,11.85,0,0,0,7.982-3.091l-3.685-3.118a7.125,7.125,0,0,1-11.014-3.284L6.2,31.045A11.9,11.9,0,0,0,16.794,37.546Z" transform="translate(-0.888 -9.735)" fill="#4caf50"/>
    <path id="Path_7" data-name="Path 7" d="M35.674,20.049h-.959V20H24v4.762h6.728A7.167,7.167,0,0,1,28.3,28.079h0L31.982,31.2a11.517,11.517,0,0,0,3.923-8.814A11.987,11.987,0,0,0,35.674,20.049Z" transform="translate(-8.094 -6.476)" fill="#1976d2"/>
  </g>
</svg>
